<svg width="385" height="145" viewBox="0 0 385 145" fill="none" xmlns="http://www.w3.org/2000/svg">
<path d="M60.152 119.448C55.9707 119.448 52.1307 118.467 48.632 116.504C45.1333 114.541 42.36 111.832 40.312 108.376C38.264 104.877 37.24 100.931 37.24 96.536C37.24 92.184 38.264 88.28 40.312 84.824C42.36 81.3253 45.1333 78.5947 48.632 76.632C52.1307 74.6693 55.9707 73.688 60.152 73.688C64.376 73.688 68.216 74.6693 71.672 76.632C75.1707 78.5947 77.9227 81.3253 79.928 84.824C81.976 88.28 83 92.184 83 96.536C83 100.931 81.976 104.877 79.928 108.376C77.9227 111.832 75.1707 114.541 71.672 116.504C68.1733 118.467 64.3333 119.448 60.152 119.448ZM60.152 111.448C62.84 111.448 65.208 110.851 67.256 109.656C69.304 108.419 70.904 106.669 72.056 104.408C73.208 102.147 73.784 99.5227 73.784 96.536C73.784 93.5493 73.208 90.9467 72.056 88.728C70.904 86.4667 69.304 84.7387 67.256 83.544C65.208 82.3493 62.84 81.752 60.152 81.752C57.464 81.752 55.0747 82.3493 52.984 83.544C50.936 84.7387 49.336 86.4667 48.184 88.728C47.032 90.9467 46.456 93.5493 46.456 96.536C46.456 99.5227 47.032 102.147 48.184 104.408C49.336 106.669 50.936 108.419 52.984 109.656C55.0747 110.851 57.464 111.448 60.152 111.448Z" fill="white"/>
<path d="M41.472 9.328V54H32.512V34.992H13.376V54H4.416V9.328H13.376V27.696H32.512V9.328H41.472Z" fill="white"/>
<path d="M32.496 78.232C33.9467 77.08 34.608 76.5467 34.48 76.632C38.6613 73.176 41.9467 70.3387 44.336 68.12C46.768 65.9013 48.816 63.576 50.48 61.144C52.144 58.712 52.976 56.344 52.976 54.04C52.976 52.2907 52.5707 50.9253 51.76 49.944C50.9493 48.9627 49.7333 48.472 48.112 48.472C46.4907 48.472 45.2107 49.0907 44.272 50.328C43.376 51.5227 42.928 53.2293 42.928 55.448H32.368C32.4533 51.8213 33.2213 48.792 34.672 46.36C36.1653 43.928 38.1067 42.136 40.496 40.984C42.928 39.832 45.616 39.256 48.56 39.256C53.6373 39.256 57.456 40.5573 60.016 43.16C62.6187 45.7627 63.92 49.1547 63.92 53.336C63.92 57.9013 62.3627 62.1467 59.248 66.072C56.1333 69.9547 52.1653 73.752 47.344 77.464H64.624V86.36H32.496V78.232Z" fill="#8EFE00"/>
<path d="M117 48.328V55.56H98.376V67.016H112.648V74.12H98.376V93H89.416V48.328H117ZM127.898 53.32C126.319 53.32 124.996 52.8293 123.93 51.848C122.906 50.824 122.394 49.5653 122.394 48.072C122.394 46.5787 122.906 45.3413 123.93 44.36C124.996 43.336 126.319 42.824 127.898 42.824C129.476 42.824 130.778 43.336 131.802 44.36C132.868 45.3413 133.402 46.5787 133.402 48.072C133.402 49.5653 132.868 50.824 131.802 51.848C130.778 52.8293 129.476 53.32 127.898 53.32ZM132.314 57.544V93H123.354V57.544H132.314ZM151.598 64.904V82.056C151.598 83.2507 151.875 84.1253 152.43 84.68C153.027 85.192 154.009 85.448 155.374 85.448H159.534V93H153.902C146.35 93 142.574 89.3307 142.574 81.992V64.904H138.35V57.544H142.574V48.776H151.598V57.544H159.534V64.904H151.598ZM185.627 57.032C189.851 57.032 193.264 58.376 195.867 61.064C198.469 63.7093 199.771 67.4213 199.771 72.2V93H190.811V73.416C190.811 70.6 190.107 68.4453 188.699 66.952C187.291 65.416 185.371 64.648 182.939 64.648C180.464 64.648 178.501 65.416 177.051 66.952C175.643 68.4453 174.939 70.6 174.939 73.416V93H165.979V57.544H174.939V61.96C176.133 60.424 177.648 59.2293 179.483 58.376C181.36 57.48 183.408 57.032 185.627 57.032ZM241.251 74.504C241.251 75.784 241.166 76.936 240.995 77.96H215.075C215.288 80.52 216.184 82.5253 217.763 83.976C219.342 85.4267 221.283 86.152 223.587 86.152C226.915 86.152 229.283 84.7227 230.691 81.864H240.355C239.331 85.2773 237.368 88.0933 234.467 90.312C231.566 92.488 228.003 93.576 223.779 93.576C220.366 93.576 217.294 92.8293 214.563 91.336C211.875 89.8 209.763 87.6453 208.227 84.872C206.734 82.0987 205.987 78.8987 205.987 75.272C205.987 71.6027 206.734 68.3813 208.227 65.608C209.72 62.8347 211.811 60.7013 214.499 59.208C217.187 57.7147 220.28 56.968 223.779 56.968C227.15 56.968 230.158 57.6933 232.803 59.144C235.491 60.5947 237.56 62.664 239.011 65.352C240.504 67.9973 241.251 71.048 241.251 74.504ZM231.971 71.944C231.928 69.64 231.096 67.8053 229.475 66.44C227.854 65.032 225.87 64.328 223.523 64.328C221.304 64.328 219.427 65.0107 217.891 66.376C216.398 67.6987 215.48 69.5547 215.139 71.944H231.971ZM261.359 93.576C258.458 93.576 255.855 93.064 253.551 92.04C251.247 90.9733 249.412 89.544 248.047 87.752C246.724 85.96 245.999 83.976 245.871 81.8H254.895C255.066 83.1653 255.727 84.296 256.879 85.192C258.074 86.088 259.546 86.536 261.295 86.536C263.002 86.536 264.324 86.1947 265.263 85.512C266.244 84.8293 266.735 83.9547 266.735 82.888C266.735 81.736 266.138 80.8827 264.943 80.328C263.791 79.7307 261.935 79.0907 259.375 78.408C256.73 77.768 254.554 77.1067 252.847 76.424C251.183 75.7413 249.732 74.696 248.495 73.288C247.3 71.88 246.703 69.9813 246.703 67.592C246.703 65.6293 247.258 63.8373 248.367 62.216C249.519 60.5947 251.14 59.3147 253.231 58.376C255.364 57.4373 257.86 56.968 260.719 56.968C264.943 56.968 268.314 58.0347 270.831 60.168C273.348 62.2587 274.735 65.096 274.991 68.68H266.415C266.287 67.272 265.69 66.1627 264.623 65.352C263.599 64.4987 262.212 64.072 260.463 64.072C258.842 64.072 257.583 64.3707 256.687 64.968C255.834 65.5653 255.407 66.3973 255.407 67.464C255.407 68.6587 256.004 69.576 257.199 70.216C258.394 70.8133 260.25 71.432 262.767 72.072C265.327 72.712 267.439 73.3733 269.103 74.056C270.767 74.7387 272.196 75.8053 273.391 77.256C274.628 78.664 275.268 80.5413 275.311 82.888C275.311 84.936 274.735 86.7707 273.583 88.392C272.474 90.0133 270.852 91.2933 268.719 92.232C266.628 93.128 264.175 93.576 261.359 93.576ZM296.234 93.576C293.333 93.576 290.73 93.064 288.426 92.04C286.122 90.9733 284.287 89.544 282.922 87.752C281.599 85.96 280.874 83.976 280.746 81.8H289.77C289.941 83.1653 290.602 84.296 291.754 85.192C292.949 86.088 294.421 86.536 296.17 86.536C297.877 86.536 299.199 86.1947 300.138 85.512C301.119 84.8293 301.61 83.9547 301.61 82.888C301.61 81.736 301.013 80.8827 299.818 80.328C298.666 79.7307 296.81 79.0907 294.25 78.408C291.605 77.768 289.429 77.1067 287.722 76.424C286.058 75.7413 284.607 74.696 283.37 73.288C282.175 71.88 281.578 69.9813 281.578 67.592C281.578 65.6293 282.133 63.8373 283.242 62.216C284.394 60.5947 286.015 59.3147 288.106 58.376C290.239 57.4373 292.735 56.968 295.594 56.968C299.818 56.968 303.189 58.0347 305.706 60.168C308.223 62.2587 309.61 65.096 309.866 68.68H301.29C301.162 67.272 300.565 66.1627 299.498 65.352C298.474 64.4987 297.087 64.072 295.338 64.072C293.717 64.072 292.458 64.3707 291.562 64.968C290.709 65.5653 290.282 66.3973 290.282 67.464C290.282 68.6587 290.879 69.576 292.074 70.216C293.269 70.8133 295.125 71.432 297.642 72.072C300.202 72.712 302.314 73.3733 303.978 74.056C305.642 74.7387 307.071 75.8053 308.266 77.256C309.503 78.664 310.143 80.5413 310.186 82.888C310.186 84.936 309.61 86.7707 308.458 88.392C307.349 90.0133 305.727 91.2933 303.594 92.232C301.503 93.128 299.05 93.576 296.234 93.576Z" fill="white"/>
<ellipse cx="128" cy="48" rx="7" ry="6" fill="#8EFE00"/>
<path d="M200.892 119.212H190.884L189.228 124H183.936L192.972 98.836H198.84L207.876 124H202.548L200.892 119.212ZM199.524 115.18L195.888 104.668L192.252 115.18H199.524ZM210.03 111.4C210.03 108.928 210.582 106.72 211.686 104.776C212.814 102.808 214.338 101.284 216.258 100.204C218.202 99.1 220.374 98.548 222.774 98.548C225.582 98.548 228.042 99.268 230.154 100.708C232.266 102.148 233.742 104.14 234.582 106.684H228.786C228.21 105.484 227.394 104.584 226.338 103.984C225.306 103.384 224.106 103.084 222.738 103.084C221.274 103.084 219.966 103.432 218.814 104.128C217.686 104.8 216.798 105.76 216.15 107.008C215.526 108.256 215.214 109.72 215.214 111.4C215.214 113.056 215.526 114.52 216.15 115.792C216.798 117.04 217.686 118.012 218.814 118.708C219.966 119.38 221.274 119.716 222.738 119.716C224.106 119.716 225.306 119.416 226.338 118.816C227.394 118.192 228.21 117.28 228.786 116.08H234.582C233.742 118.648 232.266 120.652 230.154 122.092C228.066 123.508 225.606 124.216 222.774 124.216C220.374 124.216 218.202 123.676 216.258 122.596C214.338 121.492 212.814 119.968 211.686 118.024C210.582 116.08 210.03 113.872 210.03 111.4ZM254.294 119.212H244.286L242.63 124H237.338L246.374 98.836H252.242L261.278 124H255.95L254.294 119.212ZM252.926 115.18L249.29 104.668L245.654 115.18H252.926ZM273.44 98.872C276.08 98.872 278.396 99.388 280.388 100.42C282.404 101.452 283.952 102.928 285.032 104.848C286.136 106.744 286.688 108.952 286.688 111.472C286.688 113.992 286.136 116.2 285.032 118.096C283.952 119.968 282.404 121.42 280.388 122.452C278.396 123.484 276.08 124 273.44 124H264.656V98.872H273.44ZM273.26 119.716C275.9 119.716 277.94 118.996 279.38 117.556C280.82 116.116 281.54 114.088 281.54 111.472C281.54 108.856 280.82 106.816 279.38 105.352C277.94 103.864 275.9 103.12 273.26 103.12H269.696V119.716H273.26ZM295.501 102.94V109.24H303.961V113.236H295.501V119.896H305.041V124H290.461V98.836H305.041V102.94H295.501ZM337.017 98.872V124H331.977V107.656L325.245 124H321.429L314.661 107.656V124H309.621V98.872H315.345L323.337 117.556L331.329 98.872H337.017ZM347.04 98.872V124H342V98.872H347.04ZM367.427 119.212H357.419L355.763 124H350.471L359.507 98.836H365.375L374.411 124H369.083L367.427 119.212ZM366.059 115.18L362.423 104.668L358.787 115.18H366.059Z" fill="#8EFE00"/>
<path d="M380.021 124.252C379.109 124.252 378.353 123.976 377.753 123.424C377.177 122.848 376.889 122.14 376.889 121.3C376.889 120.46 377.177 119.764 377.753 119.212C378.353 118.636 379.109 118.348 380.021 118.348C380.909 118.348 381.641 118.636 382.217 119.212C382.793 119.764 383.081 120.46 383.081 121.3C383.081 122.14 382.793 122.848 382.217 123.424C381.641 123.976 380.909 124.252 380.021 124.252Z" fill="white"/>
</svg>
